<svg width="95" height="22" viewBox="0 0 95 22" fill="none" xmlns="http://www.w3.org/2000/svg">
<path d="M7.00677 5.80523C6.804 5.57155 6.55437 5.45443 6.25731 5.45443H0.182051C0.128089 5.45443 0.0839395 5.43722 0.0506907 5.40281C0.0168969 5.36895 0 5.33065 0 5.28957V1.16486C0 1.12378 0.0168969 1.08604 0.0506907 1.05162C0.0839395 1.01721 0.128089 1 0.182051 1H6.60179C8.22171 1 9.61925 1.66719 10.7939 3.00047L12.3533 4.91823L9.31565 8.65107L7.00677 5.80523ZM18.2263 2.97993C19.4009 1.65998 20.805 1 22.4386 1H28.8381C28.8921 1 28.9324 1.01388 28.9597 1.04108C28.9864 1.06883 29 1.1099 29 1.16486V5.28957C29 5.33065 28.9864 5.36895 28.9597 5.40281C28.9324 5.43722 28.8921 5.45443 28.8381 5.45443H22.7629C22.4658 5.45443 22.2162 5.57155 22.0134 5.80523L17.5379 11.291L22.0336 16.8178C22.2363 17.0382 22.4789 17.1481 22.7629 17.1481H28.8381C28.8921 17.1481 28.9324 17.1653 28.9597 17.1997C28.9864 17.2341 29 17.2791 29 17.3335V21.4582C29 21.4993 28.9864 21.5376 28.9597 21.5714C28.9324 21.6058 28.8921 21.623 28.8381 21.623H22.4386C20.805 21.623 19.4075 20.9564 18.2465 19.6226L14.5204 15.0444L10.7939 19.6226C9.61925 20.9564 8.21517 21.623 6.58162 21.623H0.182051C0.128089 21.623 0.0872099 21.6058 0.0605018 21.5714C0.0332488 21.537 0.0201673 21.4926 0.0201673 21.4371V17.3124C0.0201673 17.2713 0.0332488 17.2336 0.0605018 17.1991C0.0872099 17.1647 0.128089 17.1475 0.182051 17.1475H6.25731C6.54074 17.1475 6.79038 17.031 7.00677 16.7967L11.4011 11.3937L18.2263 2.97993Z" fill="#00D1FF"/>
<path d="M48.8401 6.99999H44.0001C43.3001 6.99999 42.7201 7.57999 42.7201 8.27999V9.39999C42.7201 10.1 43.3001 10.68 44.0001 10.68H49.7001C51.3801 10.68 52.8201 12.06 52.8201 13.78V15.76C52.8201 17.42 51.4401 18.86 49.7001 18.86H43.2001C41.5401 18.86 40.0601 17.46 40.0601 15.76V14.8H42.5801V15.46C42.5801 16.16 43.1401 16.74 43.8401 16.74H49.0601C49.7601 16.74 50.3201 16.16 50.3201 15.46V14.08C50.3201 13.38 49.7601 12.8 49.0601 12.8H43.3401C41.6801 12.8 40.2201 11.42 40.2201 9.69999V7.97999C40.2201 6.29999 41.6201 4.85999 43.3401 4.85999H49.4801C51.1401 4.85999 52.6201 6.27999 52.6201 7.97999V8.93999H50.1001V8.25999C50.1001 7.55999 49.5401 6.99999 48.8401 6.99999Z" fill="white"/>
<path d="M61.7429 16.86V18.86H58.9629C57.4229 18.86 56.1629 17.66 56.1629 16.08V10.04H54.2829V8.01999H56.1629V5.63999H58.4829V8.01999H61.7629V10.04H58.4829V15.74C58.4829 16.4 58.9229 16.86 59.5829 16.86H61.7429Z" fill="white"/>
<path d="M66.8794 16.86H70.4994C70.8794 16.86 71.1994 16.56 71.1994 16.16V10.04H66.8794C66.2394 10.04 65.7194 10.54 65.7194 11.18V15.7C65.7194 16.36 66.2394 16.86 66.8794 16.86ZM69.4594 18.86H66.2594C64.6794 18.86 63.4194 17.54 63.4194 16.02V10.86C63.4194 9.27999 64.7394 8.01999 66.2594 8.01999H73.4994V18.86H71.1994V17.38L69.4594 18.86Z" fill="white"/>
<path d="M82.6608 16.86V18.86H79.8808C78.3408 18.86 77.0808 17.66 77.0808 16.08V10.04H75.2008V8.01999H77.0808V5.63999H79.4008V8.01999H82.6808V10.04H79.4008V15.74C79.4008 16.4 79.8408 16.86 80.5008 16.86H82.6608Z" fill="white"/>
<path d="M90.8774 9.97999H87.7174C87.0374 9.97999 86.6174 10.42 86.6174 11.06V11.36C86.6174 12 87.0774 12.46 87.7174 12.46H91.7174C93.2574 12.46 94.5174 13.68 94.5174 15.22V16.1C94.5174 17.64 93.2574 18.86 91.7174 18.86H87.1974C85.6574 18.86 84.3574 17.62 84.3574 16.06V15.7H86.6174V15.76C86.6174 16.42 87.1174 16.9 87.7774 16.9H91.1374C91.8174 16.9 92.2374 16.46 92.2374 15.82V15.54C92.2374 14.9 91.7574 14.46 91.1374 14.46H87.1374C85.5774 14.46 84.3574 13.26 84.3574 11.7V10.78C84.3574 9.23999 85.5774 8.01999 87.1374 8.01999H91.4574C92.9974 8.01999 94.2974 9.25999 94.2974 10.84V11.2H92.0374V11.12C92.0374 10.46 91.5374 9.97999 90.8774 9.97999Z" fill="white"/>
</svg>
